<?xml version="1.0" standalone="no"?>
<!DOCTYPE svg PUBLIC "-//W3C//DTD SVG 20010904//EN"
 "http://www.w3.org/TR/2001/REC-SVG-20010904/DTD/svg10.dtd">
<svg version="1.0" xmlns="http://www.w3.org/2000/svg"
 width="300.000000pt" height="300.000000pt" viewBox="0 0 300.000000 300.000000"
 preserveAspectRatio="xMidYMid meet">
<metadata>
Created by potrace 1.10, written by Peter Selinger 2001-2011
</metadata>
<g transform="translate(0.000000,300.000000) scale(0.050000,-0.050000)"
fill="#FFFFFF">
<path d="M226 5861 c-134 -82 -171 -285 -72 -402 81 -96 156 -119 395 -119
l211 0 0 -92 c0 -75 -10 -100 -50 -132 -28 -22 -50 -60 -50 -86 0 -71 -35
-149 -99 -222 -112 -127 -127 -344 -31 -440 46 -46 59 -48 317 -48 l269 0 52
62 c90 107 66 291 -61 456 -37 49 -67 110 -67 137 0 56 -35 128 -73 151 -17
10 -27 53 -27 115 l0 99 330 0 330 0 0 -89 c0 -68 -12 -101 -50 -139 -30 -31
-50 -73 -50 -108 0 -32 -22 -89 -49 -126 -147 -203 -180 -410 -82 -509 57 -57
545 -75 613 -23 119 91 104 329 -32 490 -32 38 -63 106 -73 160 -10 57 -32
105 -57 121 -31 22 -40 50 -40 125 l0 98 330 0 330 0 0 -93 c0 -73 -11 -102
-50 -139 -35 -32 -50 -67 -50 -116 0 -50 -18 -91 -60 -139 -132 -150 -165
-383 -67 -480 79 -79 560 -82 638 -4 98 99 65 306 -82 509 -27 37 -49 94 -49
126 0 35 -20 77 -50 108 -38 38 -50 71 -50 139 l0 89 1521 0 c1664 0 1601 -4
1705 119 99 117 62 320 -72 402 -100 61 -5448 61 -5548 0z m714 -236 l0 -95
-302 4 c-320 5 -358 15 -358 97 0 75 52 88 365 88 l295 1 0 -95z m380 -5 l0
-100 -100 0 -100 0 0 100 0 100 100 0 100 0 0 -100z m3180 5 l0 -95 -1500 0
-1500 0 0 95 0 95 1500 0 1500 0 0 -95z m380 -5 l0 -100 -100 0 -100 0 0 100
0 100 100 0 100 0 0 -100z m809 69 c109 -110 24 -150 -327 -155 l-302 -4 0 95
0 95 299 0 c244 0 304 -6 330 -31z m-4821 -797 c7 -37 45 -109 84 -160 39 -51
76 -124 82 -163 l11 -69 -192 0 -193 0 0 67 c0 47 21 94 70 155 39 48 76 122
83 163 15 93 39 96 55 7z m930 -160 c45 -48 82 -136 82 -193 0 -36 -15 -39
-190 -39 l-190 0 0 51 c0 60 27 116 92 195 26 31 57 94 70 140 l22 84 37 -98
c21 -54 55 -117 77 -140z m839 0 c55 -60 83 -122 83 -181 l0 -51 -190 0 -190
0 0 51 c0 60 27 116 92 195 26 31 58 92 71 136 l24 80 36 -94 c19 -51 53 -113
74 -136z"/>
<path d="M3971 4921 c-99 -65 -129 -148 -130 -355 -1 -150 -9 -201 -45 -269
-52 -100 -55 -241 -8 -333 32 -62 31 -66 -77 -318 l-110 -256 -1655 -10
c-1785 -11 -1696 -5 -1794 -121 -96 -115 -52 -343 78 -403 l50 -22 0 -1203 c0
-909 6 -1209 24 -1227 16 -16 113 -24 302 -24 l279 0 -13 -45 c-72 -245 -100
-235 628 -235 728 0 700 -10 628 235 -12 44 -8 45 122 45 130 0 134 -1 122
-45 -72 -245 -100 -235 628 -235 728 0 700 -10 628 235 -12 44 -8 45 122 45
130 0 134 -1 122 -45 -72 -245 -100 -235 628 -235 728 0 700 -10 628 235 l-13
45 279 0 c189 0 286 8 302 24 18 18 24 318 24 1225 l0 1201 59 33 c167 95 141
477 -33 477 -20 0 -26 46 -26 185 0 227 -20 300 -110 413 -66 82 -70 96 -70
236 0 192 -18 226 -121 226 l-79 0 0 135 c-1 135 -1 135 -102 240 -118 123
-114 122 -188 45 l-58 -60 84 -86 c75 -76 84 -96 84 -180 l0 -94 -79 0 c-103
0 -121 -34 -121 -226 0 -140 -4 -154 -70 -236 -89 -111 -110 -187 -110 -393
l0 -165 -65 0 c-65 0 -66 2 -176 264 l-111 264 37 71 c49 93 39 251 -21 336
-38 53 -44 88 -44 254 0 334 -203 501 -429 352z m225 -165 c13 -13 24 -78 24
-145 l0 -121 -100 0 -100 0 2 100 c4 158 95 245 174 166z m57 -499 c62 -58 77
-141 38 -215 -62 -119 -197 -139 -293 -44 -174 175 75 428 255 259z m1088
-122 c1 -114 38 -212 119 -313 63 -78 68 -95 76 -263 l9 -179 -295 0 -295 0 9
179 c8 168 13 185 76 263 81 101 118 199 119 313 l1 85 90 0 90 0 1 -85z
m-1191 -378 c33 2 76 6 95 8 31 4 226 -367 204 -389 -20 -21 -651 9 -642 30 6
13 45 103 87 199 75 174 77 176 136 163 33 -8 87 -12 120 -11z m1546 -601 c31
-31 31 -101 0 -132 -35 -35 -5357 -35 -5392 0 -13 13 -24 43 -24 66 0 23 11
53 24 66 35 35 5357 35 5392 0z m-161 -1090 l-5 -753 -235 5 -235 5 0 -102 0
-101 240 0 240 0 0 -90 0 -90 -240 0 -240 0 0 -101 0 -100 240 13 240 14 0
-103 0 -103 -288 0 c-458 0 -472 20 -472 675 l0 456 140 -8 c217 -12 240 11
240 238 0 199 -25 281 -109 359 l-54 50 -497 0 -497 0 -54 -50 c-84 -77 -109
-160 -109 -356 0 -234 17 -252 229 -241 l151 8 0 -457 c0 -653 -15 -674 -470
-674 -455 0 -470 21 -470 675 l0 456 140 -8 c217 -12 240 11 240 238 0 199
-25 281 -109 359 l-54 50 -497 0 -497 0 -54 -50 c-84 -78 -109 -160 -109 -359
0 -227 23 -250 240 -238 l140 8 0 -456 c0 -654 -15 -675 -470 -675 -455 0
-470 21 -470 675 l0 456 140 -8 c217 -12 240 11 240 238 0 199 -25 281 -109
359 l-54 50 -497 0 -497 0 -54 -50 c-84 -77 -109 -160 -109 -356 0 -234 17
-252 229 -241 l151 8 0 -457 c0 -653 -14 -674 -472 -674 l-288 0 0 103 0 103
240 -14 240 -14 0 101 0 101 -240 0 -240 0 0 90 0 90 240 0 240 0 0 101 0 102
-235 -5 -235 -5 -5 753 -5 754 2540 0 2540 0 -5 -754z m-3597 67 c12 -15 26
-78 32 -140 l9 -113 -479 0 -479 0 9 113 c6 62 20 125 32 140 33 39 843 39
876 0z m1500 0 c12 -15 26 -78 32 -140 l9 -113 -479 0 -479 0 9 113 c15 173
-3 167 470 167 324 0 420 -6 438 -27z m1502 -3 c13 -16 27 -79 31 -140 l7
-110 -479 0 -478 0 9 113 c6 62 20 125 32 140 35 42 843 39 878 -3z m-3340
-941 c11 -573 19 -600 209 -745 53 -41 110 -94 126 -119 l30 -45 -465 0 -465
0 30 45 c16 25 73 78 127 119 59 45 120 115 153 177 l55 104 0 474 c0 535 -9
494 104 491 l86 -2 10 -499z m1500 0 c11 -573 19 -600 209 -745 53 -41 110
-94 126 -119 l30 -45 -465 0 -465 0 30 45 c16 25 73 78 127 119 59 45 120 115
153 177 l55 104 0 474 c0 535 -9 494 104 491 l86 -2 10 -499z m1500 0 c11
-573 19 -600 209 -745 53 -41 110 -94 126 -119 l30 -45 -463 0 c-518 0 -522 2
-348 134 236 181 245 210 246 788 0 532 -9 491 104 488 l86 -2 10 -499z"/>
</g>
</svg>
