<svg xmlns="http://www.w3.org/2000/svg" version="1.1" xmlns:xlink="http://www.w3.org/1999/xlink" xmlns:svgjs="http://svgjs.dev/svgjs" width="1000" height="623" viewBox="0 0 1000 623"><g transform="matrix(1,0,0,1,-0.6060606060606233,0.2522267206477409)"><svg viewBox="0 0 396 247" data-background-color="#ffffff" preserveAspectRatio="xMidYMid meet" height="623" width="1000" xmlns="http://www.w3.org/2000/svg" xmlns:xlink="http://www.w3.org/1999/xlink"><defs></defs><g id="tight-bounds" transform="matrix(1,0,0,1,0.2400000000000091,-0.09999999999999432)"><svg viewBox="0 0 395.52 247.2" height="247.2" width="395.52"><g><svg></svg></g><g><svg viewBox="0 0 395.52 247.2" height="247.2" width="395.52"><g transform="matrix(2.5692535564725114, 0, 0, 2.5692535564725114, 108.69275572898412, 0.9999999999999858)"><svg xmlns="http://www.w3.org/2000/svg" xmlns:xlink="http://www.w3.org/1999/xlink" version="1.1" x="0" y="0" viewBox="17.976531982421875 2.3367228507995605 69.33316802978516 95.436279296875" enable-background="new 0 0 100 100" xml:space="preserve" height="95.436279296875" width="69.33316802978516" class="icon-none" data-fill-palette-color="accent" id="none"><path d="M86.797 2.626c-0.585-0.46-1.431-0.361-1.893 0.223L82.88 5.414c-0.633-0.278-1.331-0.434-2.066-0.434-2.848 0-5.166 2.317-5.166 5.166 0 1.166 0.393 2.24 1.047 3.105l-3.769 4.776H19.324c-0.546 0-1.038 0.329-1.246 0.835-0.208 0.505-0.09 1.085 0.297 1.47l4.538 4.499 2.341 2.321 25.524 25.304v36.957l-15.504 5.75c-0.612 0.227-0.973 0.859-0.858 1.501 0.115 0.642 0.674 1.109 1.326 1.109h32.766c0.653 0 1.212-0.468 1.326-1.11 0.115-0.643-0.247-1.275-0.859-1.501l-15.503-5.738V52.523L78.37 27.787l2.517-2.501 4.988-4.956c0.387-0.385 0.504-0.965 0.296-1.469-0.208-0.504-0.7-0.834-1.246-0.834h-8.565l2.46-3.117c0.614 0.258 1.287 0.401 1.994 0.401 2.848 0 5.166-2.317 5.166-5.166 0-1.138-0.374-2.187-1-3.042l2.04-2.585C87.481 3.934 87.381 3.087 86.797 2.626zM60.985 95.079H43.25l8.858-3.285L60.985 95.079zM52.159 50.03L30.685 28.741c2.242 1.074 4.35 1.368 6.787 0.712 3.278-0.883 5.406-2.841 8.992-1.674 2.679 0.872 5.032 1.923 7.92 1.815 3.076-0.115 5.483-2.348 8.532-2.407 3.027-0.058 5.539 2.452 8.69 2.461 0.409 0.001 0.798-0.042 1.176-0.107L52.159 50.03zM81.657 20.722L77.2 25.151c-2.124 0.559-4.14 1.886-6.354 1.88-1.507-0.004-2.951-1.001-4.283-1.57-1.46-0.623-2.831-0.904-4.415-0.874-3.306 0.063-5.802 2.534-9.218 2.386-2.907-0.126-5.346-2.12-8.225-2.284-3.232-0.184-5.641 1.625-8.65 2.435-3.068 0.826-5.809-1.952-8.692-2.539-0.334-0.068-0.672-0.112-1.011-0.139l-3.755-3.723H81.657zM80.783 12.622c-1.366 0-2.474-1.108-2.474-2.474s1.108-2.474 2.474-2.474c1.366 0 2.474 1.108 2.474 2.474S82.15 12.622 80.783 12.622z" fill="#398378" data-fill-palette-color="accent"></path></svg></g><rect width="232.0384" height="62.89115654749712" fill="#ffffff" y="92.15442172625143" x="81.7408" data-fill-palette-color="quaternary"></rect><g transform="matrix(1,0,0,1,92.288,99.87747099164959)"><svg viewBox="0 0 210.944 47.44505801670081" height="47.44505801670081" width="210.944"><g><svg viewBox="0 0 210.944 47.44505801670081" height="47.44505801670081" width="210.944"><g><svg viewBox="0 0 210.944 47.44505801670081" height="47.44505801670081" width="210.944"><g><svg viewBox="0 0 210.944 47.44505801670081" height="47.44505801670081" width="210.944"><g><svg viewBox="0 0 210.944 47.44505801670081" height="47.44505801670081" width="210.944"><g><svg viewBox="0 0 210.944 32.71424992543991" height="32.71424992543991" width="210.944"><g transform="matrix(1,0,0,1,0,0)"><svg width="210.944" viewBox="2.299999952316284 -25.399999618530273 167.62998962402344 26" height="32.71424992543991" data-palette-color="#37867b"><path d="M21.6 0.6Q19.05 0.6 17.15-3L17.15-3 13.35-10 10.35-10 10.25-5.35Q10.25-3.95 10.45-3.35 10.65-2.75 11.23-2.55 11.8-2.35 13.2-2.3L13.2-2.3 13.35-2.1 12.9 0.15Q12.2 0.1 10.45 0.08 8.7 0.05 7.15 0.05L7.15 0.05Q5.7 0.05 4.23 0.13 2.75 0.2 2.3 0.25L2.3 0.25 2.65-2.2Q4.4-2.45 5-3.05 5.6-3.65 5.6-5.35L5.6-5.35 5.65-20.7Q5.65-21.85 5.35-22.25 5.05-22.65 4.3-22.65L4.3-22.65 2.85-22.6 2.65-22.85 3-25.05Q3.55-25.05 5.05-25 6.55-24.95 8-24.95L8-24.95Q9.6-24.95 11.38-25.03 13.15-25.1 13.85-25.15L13.85-25.15Q18.3-25.15 20.75-23.43 23.2-21.7 23.2-18.6L23.2-18.6Q23.2-16.3 21.73-14.38 20.25-12.45 17.5-11.15L17.5-11.15 21.35-5.35Q22.55-3.55 23.63-2.78 24.7-2 26.1-2L26.1-2 26.35-1.65 26.05 0.2 21.6 0.6ZM14.25-12.8Q18.05-14.25 18.05-17.85L18.05-17.85Q18.05-20.1 16.45-21.2 14.85-22.3 11.5-22.3L11.5-22.3Q11.1-22.3 10.95-22.13 10.8-21.95 10.8-21.4L10.8-21.4Q10.45-15.65 10.45-13.2L10.45-13.2 14.25-12.8ZM29.3 0.4L29.55-2.05Q31.3-2.25 31.95-2.98 32.6-3.7 32.6-5.4L32.6-5.4 32.65-20.55Q32.65-21.8 32.37-22.23 32.1-22.65 31.25-22.65L31.25-22.65 29.95-22.6 29.75-22.85 30.1-25.05Q30.8-25.05 32.77-25 34.75-24.95 37.05-24.95L37.05-24.95Q45.7-24.95 49.5-25.4L49.5-25.4 49.75-25.1Q49.65-24.5 49.3-22.45 48.95-20.4 48.8-18.1L48.8-18.1 45.6-17.9Q45.6-18.05 45.65-18.53 45.7-19 45.7-19.5L45.7-19.5Q45.7-20.7 45.35-21.2 45-21.7 43.9-21.88 42.8-22.05 40.2-22.05L40.2-22.05Q39.05-22.05 38.57-21.95 38.1-21.85 37.95-21.6 37.8-21.35 37.8-20.7L37.8-20.7 37.5-14.25 41.4-14.2Q42.3-14.2 44.02-14.38 45.75-14.55 46.3-14.6L46.3-14.6 46.55-14.25 45.95-11.2Q45.4-11.2 43.82-11.25 42.25-11.3 40.5-11.3L40.5-11.3Q39.2-11.3 37.35-11.05L37.35-11.05Q37.25-7.85 37.25-5.1L37.25-5.1Q37.25-4 37.42-3.53 37.6-3.05 38.15-2.9 38.7-2.75 40.05-2.75L40.05-2.75Q42.95-2.75 44.22-3.05 45.5-3.35 46.05-4.25 46.6-5.15 46.95-7.3L46.95-7.3 49.85-7.5 50.15-7.2Q50-6.6 49.62-4.5 49.25-2.4 49.05-0.1L49.05-0.1 48.65 0.25Q47.35 0.2 43.12 0.1 38.9 0 35.95 0L35.95 0Q33.75 0 31.8 0.18 29.85 0.35 29.3 0.4L29.3 0.4ZM54.5-10.15L54.1-10.65 54.4-13.8 62.9-14.8Q64.5-14.95 65.32-15.08 66.15-15.2 66.35-15.25L66.35-15.25 66.75-14.7 66.4-11.45 54.5-10.15ZM79.14 0.45Q77.29 0.45 75.74 0.15 74.19-0.15 73.29-0.5 72.39-0.85 72.14-0.95L72.14-0.95 71.84-1.5Q71.89-1.75 72.02-2.65 72.14-3.55 72.29-5.1 72.44-6.65 72.44-8.15L72.44-8.15 75.39-8.4Q75.39-6.05 75.82-4.83 76.24-3.6 77.24-3.13 78.24-2.65 80.14-2.65L80.14-2.65Q82.29-2.65 83.59-3.53 84.89-4.4 84.89-5.9L84.89-5.9Q84.89-6.95 84.09-7.78 83.29-8.6 82.34-9.1 81.39-9.6 78.79-10.8L78.79-10.8Q75.64-12.3 73.94-13.83 72.24-15.35 72.24-17.8L72.24-17.8Q72.24-20 73.59-21.73 74.94-23.45 77.34-24.43 79.74-25.4 82.74-25.4L82.74-25.4Q84.49-25.4 85.99-25.2 87.49-25 88.39-24.78 89.29-24.55 89.54-24.45L89.54-24.45 89.79-23.95Q89.69-23.4 89.34-21.45 88.99-19.5 88.79-17.3L88.79-17.3 86.19-17.1 85.84-17.3Q85.84-17.4 85.87-17.82 85.89-18.25 85.89-18.85L85.89-18.85Q85.89-20.65 84.94-21.4 83.99-22.15 81.64-22.15L81.64-22.15Q79.79-22.15 78.54-21.28 77.29-20.4 77.29-19.1L77.29-19.1Q77.29-17.75 78.64-16.8 79.99-15.85 82.79-14.55L82.79-14.55Q85.19-13.45 86.64-12.58 88.09-11.7 89.14-10.4 90.19-9.1 90.19-7.3L90.19-7.3Q90.19-5 88.82-3.25 87.44-1.5 84.94-0.53 82.44 0.45 79.14 0.45L79.14 0.45ZM94.94 0.4L95.24-2Q97.09-2.35 97.69-3 98.29-3.65 98.29-5.3L98.29-5.3 98.34-20.55Q98.34-21.8 98.04-22.23 97.74-22.65 96.84-22.65L96.84-22.65 95.34-22.6 95.19-22.9 95.44-25.05Q96.34-25.05 97.09-25L97.09-25 100.89-24.95Q102.04-24.95 103.92-25.08 105.79-25.2 106.39-25.25L106.39-25.25 106.19-22.85Q104.59-22.65 104.07-22.25 103.54-21.85 103.44-20.7L103.44-20.7Q102.94-10.9 102.94-5L102.94-5Q102.94-3.4 103.27-2.85 103.59-2.3 104.59-2.3L104.59-2.3Q105.29-2.3 105.82-2.35 106.34-2.4 106.49-2.45L106.49-2.45 106.64-2.2 106.29 0.1Q105.64 0.1 103.87 0.05 102.09 0 100.39 0L100.39 0Q98.99 0 97.24 0.18 95.49 0.35 94.94 0.4L94.94 0.4ZM111.14 0.3L111.44-2.1Q113.14-2.4 113.71-3.05 114.29-3.7 114.29-5.35L114.29-5.35 114.34-20.55Q114.34-21.75 114.04-22.2 113.74-22.65 112.99-22.65L112.99-22.65 111.54-22.6 111.34-22.85 111.69-25.05Q112.44-25.05 113.14-25L113.14-25 116.69-24.95Q118.19-24.95 120.01-25.03 121.84-25.1 122.59-25.15L122.59-25.15Q127.54-25.15 129.84-23.1 132.14-21.05 132.14-17.8L132.14-17.8Q132.14-15.55 130.79-13.5 129.44-11.45 127.19-10.23 124.94-9 122.44-9L122.44-9 118.99-9 118.94-5.9Q118.94-4.3 119.06-3.58 119.19-2.85 119.56-2.6 119.94-2.35 120.79-2.35L120.79-2.35Q121.44-2.35 122.01-2.4 122.59-2.45 122.79-2.45L122.79-2.45 122.89-2.2 122.49 0.1Q121.94 0.1 120.54 0.05 119.14 0 117.79 0L117.79 0Q116.34 0 114.11 0.1 111.89 0.2 111.14 0.3L111.14 0.3ZM122.94-11.7Q127.04-12.45 127.04-17.15L127.04-17.15Q127.04-19.75 125.46-20.95 123.89-22.15 120.44-22.15L120.44-22.15Q119.84-22.15 119.69-22.05 119.54-21.95 119.49-21.5L119.49-21.5 119.39-19.8Q119.34-18.6 119.24-16.68 119.14-14.75 119.09-12.2L119.09-12.2 122.94-11.7ZM133.19-10.15L132.79-10.65 133.09-13.8 141.59-14.8Q143.19-14.95 144.01-15.08 144.84-15.2 145.04-15.25L145.04-15.25 145.44-14.7 145.09-11.45 133.19-10.15ZM149.08 0.4L149.33-2.05Q151.08-2.25 151.73-2.98 152.38-3.7 152.38-5.4L152.38-5.4 152.43-20.55Q152.43-21.8 152.16-22.23 151.88-22.65 151.03-22.65L151.03-22.65 149.73-22.6 149.53-22.85 149.88-25.05Q150.58-25.05 152.56-25 154.53-24.95 156.83-24.95L156.83-24.95Q165.48-24.95 169.28-25.4L169.28-25.4 169.53-25.1Q169.43-24.5 169.08-22.45 168.73-20.4 168.58-18.1L168.58-18.1 165.38-17.9Q165.38-18.05 165.43-18.53 165.48-19 165.48-19.5L165.48-19.5Q165.48-20.7 165.13-21.2 164.78-21.7 163.68-21.88 162.58-22.05 159.98-22.05L159.98-22.05Q158.83-22.05 158.36-21.95 157.88-21.85 157.73-21.6 157.58-21.35 157.58-20.7L157.58-20.7 157.28-14.25 161.18-14.2Q162.08-14.2 163.81-14.38 165.53-14.55 166.08-14.6L166.08-14.6 166.33-14.25 165.73-11.2Q165.18-11.2 163.61-11.25 162.03-11.3 160.28-11.3L160.28-11.3Q158.98-11.3 157.13-11.05L157.13-11.05Q157.03-7.85 157.03-5.1L157.03-5.1Q157.03-4 157.21-3.53 157.38-3.05 157.93-2.9 158.48-2.75 159.83-2.75L159.83-2.75Q162.73-2.75 164.01-3.05 165.28-3.35 165.83-4.25 166.38-5.15 166.73-7.3L166.73-7.3 169.63-7.5 169.93-7.2Q169.78-6.6 169.41-4.5 169.03-2.4 168.83-0.1L168.83-0.1 168.43 0.25Q167.13 0.2 162.91 0.1 158.68 0 155.73 0L155.73 0Q153.53 0 151.58 0.18 149.63 0.35 149.08 0.4L149.08 0.4Z" opacity="1" transform="matrix(1,0,0,1,0,0)" fill="#37867b" class="undefined-text-0" data-fill-palette-color="primary" id="text-0"></path></svg></g></svg></g><g transform="matrix(1,0,0,1,0,40.43729919083806)"><svg viewBox="0 0 210.944 7.007758825862753" height="7.007758825862753" width="210.944"><g transform="matrix(1,0,0,1,0,0)"><svg width="210.944" viewBox="3.25 -33 1008.3099975585938 33.5" height="7.007758825862753" data-palette-color="#398378"><path d="M15.75 0L3.25 0 3.25-0.8 7.25-2.8 7.25-30.2 3.25-32.2 3.25-33 15.75-33 15.75-32.2 11.75-30.2 11.75-2.8 15.75-0.8 15.75 0ZM28 0L11.8-16.9 25.65-30.5 22.1-32.2 22.1-33 32.6-33 32.6-32.2 29.5-31 16.35-18.1 32.15-2.1 35.2-0.8 35.2 0 28 0ZM61.8 0L39.2 0 39.2-0.8 42.75-2.45 42.75-25.55 39.2-27.2 39.2-28 60.55-28 60.55-20.9 59.75-20.9 57.35-25.5 47-25.5 47-15.75 54.55-15.75 56.05-19.15 56.85-19.15 56.85-9.9 56.05-9.9 54.55-13.25 47-13.25 47-2.5 58.5-2.5 61-7.9 61.8-7.9 61.8 0ZM91.15 0L68.55 0 68.55-0.8 72.1-2.45 72.1-25.55 68.55-27.2 68.55-28 89.9-28 89.9-20.9 89.1-20.9 86.7-25.5 76.35-25.5 76.35-15.75 83.9-15.75 85.4-19.15 86.2-19.15 86.2-9.9 85.4-9.9 83.9-13.25 76.35-13.25 76.35-2.5 87.85-2.5 90.35-7.9 91.15-7.9 91.15 0ZM109.84 0L97.89 0 97.89-0.8 101.49-2.45 101.49-25.55 97.89-27.2 97.89-28 108.99-28Q120.44-28 120.44-20.05L120.44-20.05Q120.44-17.5 118.89-15.65 117.34-13.8 114.62-12.83 111.89-11.85 108.34-11.85L108.34-11.85 105.74-11.85 105.74-2.45 109.84-0.8 109.84 0ZM108.19-25.5L105.74-25.5 105.74-14.35 108.49-14.35Q111.94-14.35 113.97-15.83 115.99-17.3 115.99-20L115.99-20Q115.99-22.95 113.92-24.23 111.84-25.5 108.19-25.5L108.19-25.5ZM157.49 0L144.29 0 144.29-0.8 148.74-2.45 148.74-25.5 141.04-25.5 138.59-19.65 137.79-19.65 137.79-28 163.99-28 163.99-19.65 163.19-19.65 160.69-25.5 152.99-25.5 152.99-2.45 157.49-0.8 157.49 0ZM180.99 0L169.49 0 169.49-0.8 173.04-2.45 173.04-25.55 169.49-27.2 169.49-28 180.99-28 180.99-27.2 177.29-25.55 177.29-15.75 192.24-15.75 192.24-25.55 188.54-27.2 188.54-28 199.99-28 199.99-27.2 196.49-25.55 196.49-2.45 199.99-0.8 199.99 0 188.54 0 188.54-0.8 192.24-2.45 192.24-13.25 177.29-13.25 177.29-2.45 180.99-0.8 180.99 0ZM229.08 0L206.48 0 206.48-0.8 210.03-2.45 210.03-25.55 206.48-27.2 206.48-28 227.83-28 227.83-20.9 227.03-20.9 224.63-25.5 214.28-25.5 214.28-15.75 221.83-15.75 223.33-19.15 224.13-19.15 224.13-9.9 223.33-9.9 221.83-13.25 214.28-13.25 214.28-2.5 225.78-2.5 228.28-7.9 229.08-7.9 229.08 0ZM260.08 0L248.33 0 248.33-0.8 251.93-2.45 251.93-25.55 248.33-27.2 248.33-28 260.38-28Q265.38-28 268.85-26.4 272.33-24.8 274.15-21.93 275.98-19.05 275.98-15.25L275.98-15.25Q275.98-10.6 274.08-7.18 272.18-3.75 268.6-1.88 265.03 0 260.08 0L260.08 0ZM259.73-25.5L259.73-25.5 256.18-25.5 256.18-2.5 260.03-2.5Q265.63-2.5 268.6-5.7 271.58-8.9 271.58-14.15L271.58-14.15Q271.58-19.7 268.53-22.6 265.48-25.5 259.73-25.5ZM293.83 0L282.73 0 282.73-0.8 286.33-2.45 286.33-25.55 282.73-27.2 282.73-28 293.83-28Q298.48-28 301.15-26.1 303.83-24.2 303.83-20.9L303.83-20.9Q303.83-18.45 302.3-16.7 300.78-14.95 298.08-13.95L298.08-13.95 305.83-2.3 309.13-0.8 309.13 0 302.03 0 293.93-12.75 290.53-12.75 290.53-2.5 293.83-0.8 293.83 0ZM293.13-25.5L293.13-25.5 290.53-25.5 290.53-15.25 293.38-15.25Q296.08-15.25 297.7-16.63 299.33-18 299.33-20.4L299.33-20.4Q299.33-22.95 297.7-24.23 296.08-25.5 293.13-25.5ZM323.32 0L312.37 0 312.37-0.8 315.67-2.45 315.67-25.55 312.37-27.2 312.37-28 323.32-28 323.32-27.2 319.92-25.55 319.92-2.45 323.32-0.8 323.32 0ZM340.42 0L329.82 0 329.82-0.8 333.37-2.45 333.37-25.6 329.82-27.2 329.82-28 336.82-28 353.77-7.45 353.77-25.6 349.52-27.2 349.52-28 360.02-28 360.02-27.2 356.52-25.6 356.52 0.2 354.57 0.2 336.12-22 336.12-2.6 340.42-0.8 340.42 0ZM377.67 0L366.27 0 366.27-0.8 369.87-2.45 369.87-25.55 366.27-27.2 366.27-28 377.67-28 377.67-27.2 374.12-25.55 374.12-2.45 377.67-0.8 377.67 0ZM395.22 0L388.17 0 374.12-14.3 385.72-25.8 382.62-27.2 382.62-28 392.57-28 392.57-27.2 389.67-26.1 378.52-15.4 391.67-2.15 395.22-0.8 395.22 0ZM408.91 0.5L408.91 0.5Q406.26 0.5 404.34-0.05 402.41-0.6 400.41-1.55L400.41-1.55 399.96-8.3 400.76-8.3 403.11-3.8Q404.56-2.7 406.09-2.27 407.61-1.85 409.21-1.85L409.21-1.85Q412.06-1.85 413.59-3.03 415.11-4.2 415.11-6.6L415.11-6.6Q415.11-8.4 414.16-9.38 413.21-10.35 411.39-11.18 409.56-12 406.91-13.25L406.91-13.25Q403.76-14.75 402.39-16.3 401.01-17.85 401.01-20.6L401.01-20.6Q401.01-22.7 402.26-24.5 403.51-26.3 405.54-27.43 407.56-28.55 410.01-28.55L410.01-28.55Q412.06-28.55 413.81-28.03 415.56-27.5 417.26-26.7L417.26-26.7 417.61-20.2 416.81-20.2 414.91-24.3Q413.71-25.3 412.61-25.75 411.51-26.2 410.06-26.2L410.06-26.2Q407.56-26.2 406.14-24.95 404.71-23.7 404.71-21.65L404.71-21.65Q404.71-20.3 405.36-19.4 406.01-18.5 407.39-17.73 408.76-16.95 410.96-15.9L410.96-15.9Q413.81-14.55 415.51-13.43 417.21-12.3 417.99-10.9 418.76-9.5 418.76-7.35L418.76-7.35Q418.76-5.05 417.49-3.28 416.21-1.5 413.99-0.5 411.76 0.5 408.91 0.5ZM456.31 0L444.26 0 444.26-0.8 448.16-2.45 448.16-13.35 439.01-25.7 435.76-27.2 435.76-28 447.01-28 447.01-27.2 444.01-25.7 444.01-25.5 451.26-15.85 457.86-25.45 457.86-25.6 454.71-27.2 454.71-28 464.51-28 464.51-27.2 461.21-25.65 452.41-13.15 452.41-2.45 456.31-0.8 456.31 0ZM484.01 0.5L484.01 0.5Q479.91 0.5 476.68-1.38 473.46-3.25 471.61-6.53 469.76-9.8 469.76-14L469.76-14Q469.76-18.2 471.61-21.5 473.46-24.8 476.68-26.68 479.91-28.55 484.01-28.55L484.01-28.55Q488.16-28.55 491.38-26.68 494.61-24.8 496.48-21.5 498.36-18.2 498.36-14L498.36-14Q498.36-9.8 496.48-6.53 494.61-3.25 491.38-1.38 488.16 0.5 484.01 0.5ZM484.86-2L484.86-2Q489.16-2 491.61-4.95 494.06-7.9 494.06-12.75L494.06-12.75Q494.06-16.7 492.71-19.7 491.36-22.7 488.93-24.38 486.51-26.05 483.36-26.05L483.36-26.05Q479.06-26.05 476.56-23.15 474.06-20.25 474.06-15.4L474.06-15.4Q474.06-11.4 475.43-8.38 476.81-5.35 479.23-3.68 481.66-2 484.86-2ZM520.4 0.5L520.4 0.5Q517.06 0.5 514.4-0.63 511.75-1.75 510.23-4.23 508.71-6.7 508.71-10.7L508.71-10.7 508.71-25.55 505.11-27.2 505.11-28 516.56-28 516.56-27.2 512.96-25.55 512.96-11.05Q512.96-6.1 515.15-4.13 517.36-2.15 521.11-2.15L521.11-2.15Q523.31-2.15 525.11-3 526.9-3.85 527.98-5.58 529.06-7.3 529.06-10L529.06-10 529.06-25.65 524.75-27.2 524.75-28 535.46-28 535.46-27.2 531.9-25.6 531.9-10.7Q531.9-6.7 530.4-4.23 528.9-1.75 526.33-0.63 523.75 0.5 520.4 0.5ZM569.55 0.5L569.55 0.5Q565.25 0.5 561.9-1.3 558.55-3.1 556.62-6.23 554.7-9.35 554.7-13.3L554.7-13.3Q554.7-16.6 555.95-19.4 557.2-22.2 559.35-24.25 561.5-26.3 564.3-27.43 567.1-28.55 570.25-28.55L570.25-28.55Q573.5-28.55 575.37-27.93 577.25-27.3 579.05-26.45L579.05-26.45 579.2-19.5 578.4-19.5 575.8-24.25Q574.45-25.25 573.1-25.65 571.75-26.05 570.15-26.05L570.15-26.05Q566.9-26.05 564.37-24.5 561.85-22.95 560.4-20.28 558.95-17.6 558.95-14.3L558.95-14.3Q558.95-8.35 562.02-5.18 565.1-2 570.25-2L570.25-2Q571.9-2 573.15-2.25 574.4-2.5 575.55-3.1L575.55-3.1 578.9-8.25 579.7-8.25 579.3-1.65Q577.45-0.7 575.17-0.1 572.9 0.5 569.55 0.5ZM598.65 0L587.55 0 587.55-0.8 591.15-2.45 591.15-25.55 587.55-27.2 587.55-28 598.65-28Q603.3-28 605.97-26.1 608.65-24.2 608.65-20.9L608.65-20.9Q608.65-18.45 607.12-16.7 605.6-14.95 602.9-13.95L602.9-13.95 610.65-2.3 613.95-0.8 613.95 0 606.85 0 598.75-12.75 595.35-12.75 595.35-2.5 598.65-0.8 598.65 0ZM597.95-25.5L597.95-25.5 595.35-25.5 595.35-15.25 598.2-15.25Q600.9-15.25 602.52-16.63 604.15-18 604.15-20.4L604.15-20.4Q604.15-22.95 602.52-24.23 600.9-25.5 597.95-25.5ZM639.54 0L616.94 0 616.94-0.8 620.49-2.45 620.49-25.55 616.94-27.2 616.94-28 638.29-28 638.29-20.9 637.49-20.9 635.09-25.5 624.74-25.5 624.74-15.75 632.29-15.75 633.79-19.15 634.59-19.15 634.59-9.9 633.79-9.9 632.29-13.25 624.74-13.25 624.74-2.5 636.24-2.5 638.74-7.9 639.54-7.9 639.54 0ZM653.99 0L644.69 0 644.69-0.8 647.24-2.1 658.34-28.25 660.44-28.25 671.49-2.15 674.39-0.8 674.39 0 663.49 0 663.49-0.8 666.99-2.2 663.84-9.8 653.44-9.8 650.29-2.1 653.99-0.8 653.99 0ZM658.59-22.4L654.49-12.3 662.79-12.3 658.59-22.4ZM697.99 0L684.79 0 684.79-0.8 689.24-2.45 689.24-25.5 681.54-25.5 679.09-19.65 678.29-19.65 678.29-28 704.49-28 704.49-19.65 703.69-19.65 701.19-25.5 693.49-25.5 693.49-2.45 697.99-0.8 697.99 0ZM732.59 0L709.99 0 709.99-0.8 713.54-2.45 713.54-25.55 709.99-27.2 709.99-28 731.34-28 731.34-20.9 730.54-20.9 728.14-25.5 717.79-25.5 717.79-15.75 725.34-15.75 726.84-19.15 727.64-19.15 727.64-9.9 726.84-9.9 725.34-13.25 717.79-13.25 717.79-2.5 729.29-2.5 731.79-7.9 732.59-7.9 732.59 0ZM759.53 0L750.23 0 750.23-0.8 752.78-2.1 763.88-28.25 765.98-28.25 777.03-2.15 779.93-0.8 779.93 0 769.03 0 769.03-0.8 772.53-2.2 769.38-9.8 758.98-9.8 755.83-2.1 759.53-0.8 759.53 0ZM764.13-22.4L760.03-12.3 768.33-12.3 764.13-22.4ZM795.18 0L784.58 0 784.58-0.8 788.13-2.45 788.13-25.6 784.58-27.2 784.58-28 791.58-28 808.53-7.45 808.53-25.6 804.28-27.2 804.28-28 814.78-28 814.78-27.2 811.28-25.6 811.28 0.2 809.33 0.2 790.88-22 790.88-2.6 795.18-0.8 795.18 0ZM832.78 0L821.03 0 821.03-0.8 824.63-2.45 824.63-25.55 821.03-27.2 821.03-28 833.08-28Q838.08-28 841.55-26.4 845.03-24.8 846.85-21.93 848.68-19.05 848.68-15.25L848.68-15.25Q848.68-10.6 846.78-7.18 844.88-3.75 841.3-1.88 837.73 0 832.78 0L832.78 0ZM832.43-25.5L832.43-25.5 828.88-25.5 828.88-2.5 832.73-2.5Q838.33-2.5 841.3-5.7 844.28-8.9 844.28-14.15L844.28-14.15Q844.28-19.7 841.23-22.6 838.18-25.5 832.43-25.5ZM877.82 0L867.67 0 867.67-0.8 871.22-2.45 872.17-25.55 868.32-27.2 868.32-28 877.27-28 886.77-6.8 896.67-28 905.17-28 905.17-27.2 901.47-25.8 902.17-2.45 905.37-0.8 905.37 0 894.52 0 894.52-0.8 897.82-2.4 897.37-23.3 886.42 0.2 885.12 0.2 874.67-23.3 874.17-2.4 877.82-0.8 877.82 0ZM926.12 0.5L926.12 0.5Q922.02 0.5 918.79-1.38 915.57-3.25 913.72-6.53 911.87-9.8 911.87-14L911.87-14Q911.87-18.2 913.72-21.5 915.57-24.8 918.79-26.68 922.02-28.55 926.12-28.55L926.12-28.55Q930.27-28.55 933.49-26.68 936.72-24.8 938.59-21.5 940.47-18.2 940.47-14L940.47-14Q940.47-9.8 938.59-6.53 936.72-3.25 933.49-1.38 930.27 0.5 926.12 0.5ZM926.97-2L926.97-2Q931.27-2 933.72-4.95 936.17-7.9 936.17-12.75L936.17-12.75Q936.17-16.7 934.82-19.7 933.47-22.7 931.04-24.38 928.62-26.05 925.47-26.05L925.47-26.05Q921.17-26.05 918.67-23.15 916.17-20.25 916.17-15.4L916.17-15.4Q916.17-11.4 917.54-8.38 918.92-5.35 921.34-3.68 923.77-2 926.97-2ZM958.32 0L947.22 0 947.22-0.8 950.82-2.45 950.82-25.55 947.22-27.2 947.22-28 958.32-28Q962.97-28 965.64-26.1 968.32-24.2 968.32-20.9L968.32-20.9Q968.32-18.45 966.79-16.7 965.27-14.95 962.57-13.95L962.57-13.95 970.32-2.3 973.62-0.8 973.62 0 966.52 0 958.42-12.75 955.02-12.75 955.02-2.5 958.32-0.8 958.32 0ZM957.62-25.5L957.62-25.5 955.02-25.5 955.02-15.25 957.87-15.25Q960.57-15.25 962.19-16.63 963.82-18 963.82-20.4L963.82-20.4Q963.82-22.95 962.19-24.23 960.57-25.5 957.62-25.5ZM999.21 0L976.61 0 976.61-0.8 980.16-2.45 980.16-25.55 976.61-27.2 976.61-28 997.96-28 997.96-20.9 997.16-20.9 994.76-25.5 984.41-25.5 984.41-15.75 991.96-15.75 993.46-19.15 994.26-19.15 994.26-9.9 993.46-9.9 991.96-13.25 984.41-13.25 984.41-2.5 995.91-2.5 998.41-7.9 999.21-7.9 999.21 0ZM1009.01-8.45L1008.11-8.45 1005.91-28 1011.21-28 1009.01-8.45ZM1008.51 0.25L1008.51 0.25Q1007.26 0.25 1006.36-0.68 1005.46-1.6 1005.46-2.8L1005.46-2.8Q1005.46-4.05 1006.36-4.95 1007.26-5.85 1008.51-5.85L1008.51-5.85Q1009.71-5.85 1010.64-4.95 1011.56-4.05 1011.56-2.8L1011.56-2.8Q1011.56-1.6 1010.64-0.68 1009.71 0.25 1008.51 0.25Z" opacity="1" transform="matrix(1,0,0,1,0,0)" fill="#398378" class="undefined-text-1" data-fill-palette-color="secondary" id="text-1"></path></svg></g></svg></g></svg></g></svg></g><g></g></svg></g></svg></g></svg></g></svg></g></svg><rect width="395.52" height="247.2" fill="none" stroke="none" visibility="hidden"></rect></g></svg></g></svg>